<svg width="246" height="246" viewBox="0 0 246 246" fill="none" xmlns="http://www.w3.org/2000/svg">
<g filter="url(#filter0_d_760_105)">
<rect x="23" y="23" width="200" height="200" rx="20" fill="white"/>
</g>
<path d="M123.5 53C104.802 53 86.8703 60.4277 73.649 73.649C60.4277 86.8703 53 104.802 53 123.5C53 142.198 60.4277 160.13 73.649 173.351C86.8703 186.572 104.802 194 123.5 194C142.198 194 160.13 186.572 173.351 173.351C186.572 160.13 194 142.198 194 123.5C194 104.802 186.572 86.8703 173.351 73.649C160.13 60.4277 142.198 53 123.5 53ZM142.083 180.975H141.536C141.126 180.998 140.715 180.937 140.329 180.796C139.943 180.654 139.59 180.436 139.292 180.153C139.016 179.861 138.802 179.518 138.66 179.143C138.519 178.767 138.454 178.368 138.47 177.967V169.707C138.505 166.963 138.528 164.184 138.528 161.388C138.519 159.343 138.22 157.31 137.641 155.348C137.093 153.366 135.988 151.582 134.457 150.208C138.552 149.812 142.577 148.882 146.43 147.441C149.68 146.205 152.62 144.271 155.043 141.777C157.434 139.269 159.214 136.237 160.242 132.929C161.493 128.879 162.088 124.654 162.005 120.416C162.028 117.456 161.51 114.518 160.477 111.744C159.428 108.949 157.841 106.386 155.807 104.201C156.246 103.098 156.565 101.952 156.758 100.781C156.952 99.6064 157.052 98.4196 157.052 97.2329C157.052 95.7054 156.876 94.1779 156.523 92.6915C156.203 91.167 155.769 89.6686 155.225 88.2089C155.017 88.1278 154.796 88.0879 154.573 88.0914H153.927C152.575 88.1031 151.248 88.3264 149.967 88.7435C148.556 89.1553 147.176 89.6657 145.837 90.271C144.505 90.868 143.208 91.5408 141.953 92.2861C140.69 93.0322 139.574 93.749 138.587 94.4129C128.704 91.6583 118.255 91.6583 108.372 94.4129C107.27 93.676 106.149 92.9669 105.011 92.2861C103.739 91.5346 102.42 90.8635 101.063 90.2769C99.7278 89.6515 98.3423 89.1386 96.9215 88.7435C95.666 88.3287 94.3544 88.1088 93.0322 88.0914H92.386C92.165 88.0883 91.9455 88.1282 91.7397 88.2089C91.1879 89.6706 90.7364 91.1683 90.3885 92.6915C90.0713 94.1838 89.9185 95.7054 89.9126 97.2329C89.9126 98.4196 90.0125 99.6064 90.2122 100.781C90.4061 101.951 90.7175 103.096 91.1522 104.201C89.123 106.389 87.5422 108.954 86.4993 111.75C85.461 114.522 84.9374 117.461 84.9541 120.422C84.872 124.637 85.4508 128.84 86.6696 132.876C87.733 136.184 89.5072 139.222 91.8631 141.783C94.3013 144.262 97.2388 146.189 100.476 147.447C104.312 148.915 108.331 149.855 112.42 150.243C111.278 151.278 110.372 152.546 109.764 153.962C109.186 155.362 108.791 156.831 108.589 158.333C106.434 159.365 104.076 159.907 101.686 159.919C99.4666 160.008 97.2761 159.391 95.4293 158.157C93.6576 156.844 92.1572 155.2 91.0112 153.316C90.4984 152.524 89.9248 151.774 89.2957 151.071C88.6321 150.333 87.9004 149.658 87.1103 149.056C86.3315 148.474 85.4778 148 84.5723 147.646C83.6813 147.256 82.7192 147.054 81.7464 147.053C81.5114 147.059 81.2764 147.082 81.0414 147.112C80.7204 147.111 80.4007 147.15 80.0896 147.229C79.8163 147.301 79.5577 147.42 79.3259 147.582C79.2205 147.64 79.1323 147.725 79.0704 147.828C79.0085 147.931 78.975 148.049 78.9734 148.169C78.9981 148.452 79.0845 148.726 79.2266 148.971C79.3687 149.217 79.5631 149.429 79.7959 149.591C80.3422 150.026 80.7946 150.36 81.1589 150.595L81.3351 150.719C82.1165 151.324 82.8685 151.976 83.5794 152.675C84.2374 153.251 84.8308 153.903 85.3419 154.614C85.8706 155.313 86.3289 156.059 86.699 156.852C87.1279 157.64 87.5802 158.544 88.0561 159.572C89.1606 162.357 91.1229 164.713 93.6609 166.299C96.3223 167.727 99.3068 168.438 102.332 168.361C103.355 168.361 104.383 168.303 105.399 168.185C106.41 168.021 107.414 167.85 108.425 167.651V177.891C108.443 178.304 108.374 178.716 108.222 179.1C108.07 179.484 107.839 179.832 107.543 180.121C107.248 180.41 106.895 180.634 106.507 180.777C106.119 180.92 105.706 180.979 105.293 180.952H104.929C91.2289 176.526 79.5589 167.354 72.0207 155.088C64.4825 142.821 61.5714 128.267 63.8116 114.045C66.0519 99.8226 73.2962 86.8676 84.2401 77.5126C95.1841 68.1576 109.108 63.0173 123.506 63.0173C137.903 63.0173 151.828 68.1576 162.772 77.5126C173.716 86.8676 180.96 99.8226 183.2 114.045C185.44 128.267 182.529 142.821 174.991 155.088C167.453 167.354 155.783 176.526 142.083 180.952V180.975Z" fill="black"/>
<defs>
<filter id="filter0_d_760_105" x="0" y="0" width="246" height="246" filterUnits="userSpaceOnUse" color-interpolation-filters="sRGB">
<feFlood flood-opacity="0" result="BackgroundImageFix"/>
<feColorMatrix in="SourceAlpha" type="matrix" values="0 0 0 0 0 0 0 0 0 0 0 0 0 0 0 0 0 0 127 0" result="hardAlpha"/>
<feMorphology radius="3" operator="dilate" in="SourceAlpha" result="effect1_dropShadow_760_105"/>
<feOffset/>
<feGaussianBlur stdDeviation="10"/>
<feComposite in2="hardAlpha" operator="out"/>
<feColorMatrix type="matrix" values="0 0 0 0 0 0 0 0 0 0 0 0 0 0 0 0 0 0 0.1 0"/>
<feBlend mode="normal" in2="BackgroundImageFix" result="effect1_dropShadow_760_105"/>
<feBlend mode="normal" in="SourceGraphic" in2="effect1_dropShadow_760_105" result="shape"/>
</filter>
</defs>
</svg>
