<svg width="127" height="127" viewBox="0 0 127 127" fill="none" xmlns="http://www.w3.org/2000/svg">
<path d="M152.874 63.437C152.874 112.832 112.832 152.874 63.437 152.874C14.0423 152.874 -26 112.832 -26 63.437C-26 14.0423 14.0423 -26 63.437 -26C112.832 -26 152.874 14.0423 152.874 63.437Z" fill="#FF5722"/>
<path d="M72.6351 57.3139C70.9315 57.8047 69.0531 57.8127 67.2969 57.7384C65.2539 57.6522 63.0904 57.3934 61.204 56.5546C59.6518 55.8646 58.4063 54.6194 59.0582 52.821C59.5175 51.5526 60.5361 50.4194 61.713 49.7808C63.0367 49.0623 64.4907 49.179 65.815 49.8284C67.3021 50.5576 68.5389 51.7437 69.6598 52.9404C70.2477 53.5679 70.8081 54.2196 71.3617 54.8774C71.6171 55.1801 73.3481 56.9102 72.6351 57.3139ZM100.953 57.9327C98.3334 57.3225 95.2375 57.5408 92.6106 57.1209C88.4733 56.4585 82.3101 51.6316 78.9697 46.7254C76.6485 43.3162 75.5408 39.8439 73.7657 35.6128C72.5277 32.6594 69.8266 23.3184 66.0503 27.6907C64.4953 29.4913 62.7539 35.4188 61.4822 35.3353C60.5401 35.5544 60.3865 33.7175 60.0888 32.9325C59.5472 31.5071 59.2604 29.8579 58.5354 28.5137C57.9556 27.4394 57.1946 26.1524 56.0294 25.6302C53.9531 24.562 51.4497 27.7816 50.2074 31.5994C49.6762 33.6466 46.1053 37.615 44.5502 38.5747C37.4745 42.9433 23.2733 47.5457 21.825 62.8716C21.819 62.935 21.825 63.1281 22.0654 62.9538C23.759 61.7272 42.9695 47.8833 30.6408 74.6426C23.0879 91.0372 59.5547 101.477 61.4297 101.52C61.6822 101.525 61.6639 101.41 61.6725 101.335C64.5821 75.1682 93.3305 77.923 100.025 71.6559C106.66 65.4464 106.795 59.4358 100.953 57.9327Z" fill="white"/>
</svg>
