<svg width="246" height="246" viewBox="0 0 246 246" fill="none" xmlns="http://www.w3.org/2000/svg">
<g filter="url(#filter0_d_760_123)">
<rect x="23" y="23" width="200" height="200" rx="20" fill="#3A589B"/>
</g>
<path d="M123.5 184C156.78 184 183.759 156.913 183.759 123.5C183.759 90.0869 156.78 63 123.5 63C90.2201 63 63.2412 90.0869 63.2412 123.5C63.2412 156.913 90.2201 184 123.5 184Z" fill="#3A589B"/>
<path fill-rule="evenodd" clip-rule="evenodd" d="M91.8682 174.754L124.745 130.258L119.811 125.444L73.3115 157.18C77.9164 164.4 84.2986 170.448 91.8682 174.754Z" fill="#FFBA00"/>
<path d="M183.447 63.8184C183.4 63.8662 183.26 64.0096 182.933 64.3442C183.26 64.0574 183.447 63.8662 183.447 63.8184C182.467 63.7705 181.58 63.914 181.58 63.914C161.47 67.1645 145.839 73.6178 134.034 83.7519C131.234 86.142 126.802 90.6354 124.702 93.3123C123.816 94.4597 122.276 96.7061 121.156 98.2837C120.176 99.8613 118.916 101.534 118.916 101.534C118.916 101.534 118.17 101.295 116.863 101.152C114.017 100.578 108.791 101.104 106.038 103.685C103.239 106.219 91.7136 117.787 91.0137 118.647C91.8534 118.887 108.324 120.177 110.144 120.751C110.751 121.038 110.937 121.277 111.264 121.755C111.311 122.137 111.124 123.762 111.124 123.715C110.984 124.671 110.611 130.359 109.911 131.841L117.47 139.585C118.916 138.82 124.049 138.055 125.029 137.912C124.982 137.912 126.568 137.721 126.942 137.769C127.408 138.103 127.641 138.294 127.922 138.916C128.481 140.78 129.788 157.654 130.021 158.515C130.861 157.845 142.199 145.99 144.626 143.122C147.146 140.302 147.612 134.996 147.099 132.032C146.912 130.694 146.725 129.929 146.725 129.929C146.725 129.929 148.359 128.686 149.898 127.634C151.438 126.487 153.631 124.91 154.751 124.002C157.411 121.851 161.797 117.261 164.083 114.441C173.975 102.347 180.228 86.3332 183.4 65.7304C183.354 65.7782 183.494 64.8222 183.447 63.8184ZM162.17 97.4235C158.997 100.674 153.865 100.674 150.692 97.4235C147.519 94.1728 147.519 88.9146 150.692 85.664C153.865 82.4134 158.997 82.4134 162.17 85.664C165.343 88.9624 165.343 94.2206 162.17 97.4235Z" fill="white"/>
<defs>
<filter id="filter0_d_760_123" x="0" y="0" width="246" height="246" filterUnits="userSpaceOnUse" color-interpolation-filters="sRGB">
<feFlood flood-opacity="0" result="BackgroundImageFix"/>
<feColorMatrix in="SourceAlpha" type="matrix" values="0 0 0 0 0 0 0 0 0 0 0 0 0 0 0 0 0 0 127 0" result="hardAlpha"/>
<feMorphology radius="3" operator="dilate" in="SourceAlpha" result="effect1_dropShadow_760_123"/>
<feOffset/>
<feGaussianBlur stdDeviation="10"/>
<feComposite in2="hardAlpha" operator="out"/>
<feColorMatrix type="matrix" values="0 0 0 0 0 0 0 0 0 0 0 0 0 0 0 0 0 0 0.1 0"/>
<feBlend mode="normal" in2="BackgroundImageFix" result="effect1_dropShadow_760_123"/>
<feBlend mode="normal" in="SourceGraphic" in2="effect1_dropShadow_760_123" result="shape"/>
</filter>
</defs>
</svg>
